<svg width="137" height="85" viewBox="0 0 137 85" fill="none" xmlns="http://www.w3.org/2000/svg">
<path d="M136.222 53.2566C136.292 52.8694 136.321 52.4761 136.309 52.0829C136.309 51.3503 136.068 50.6381 135.622 50.0561C135.025 49.3955 134.208 48.9742 133.323 48.8702C132.864 48.7676 132.405 48.665 131.972 48.578C131.095 48.3758 130.231 48.1882 129.393 48.0163C127.69 47.6705 126.055 47.3297 124.501 47.0086C121.389 46.4075 118.599 45.9125 116.239 45.5454C111.531 44.8258 108.594 44.6492 108.486 45.1764C108.378 45.7036 111.106 46.8526 115.665 48.2883C117.945 49.0062 120.685 49.7994 123.725 50.6285C125.26 51.0168 126.874 51.4521 128.558 51.8788C129.374 52.0948 130.209 52.3076 131.063 52.5173C130.57 52.7771 130.091 53.0622 129.627 53.3714C127.636 54.4999 124.515 56.6286 119.211 59.6795C111.683 64.053 103.705 67.6019 95.4155 70.2648C89.3615 72.1675 83.1235 73.4252 76.8052 74.0169C73.3229 74.3342 69.8235 74.4232 66.3296 74.2831C62.678 74.0968 59.0426 73.6714 55.4467 73.0097C51.7934 72.2892 48.1977 71.3026 44.6882 70.0578C41.1351 68.7838 37.6943 67.216 34.4015 65.3707C27.8691 61.7308 22.0425 56.9489 17.1985 51.2519C14.9072 48.5171 12.829 45.6106 10.9822 42.558C9.26671 39.659 7.77085 36.6355 6.50719 33.513C4.28403 28.1785 2.76656 22.5768 1.99322 16.8496C1.51934 12.9365 1.35296 8.99232 1.49564 5.05324C1.71549 3.59844 1.75583 2.12215 1.61572 0.657512C1.05714 2.03137 0.704651 3.48024 0.569708 4.95717C0.0146355 8.97464 -0.12115 13.0389 0.164547 17.0845C0.62521 23.0922 1.91848 29.0069 4.00722 34.6586C5.21182 37.9835 6.66987 41.211 8.3685 44.3127C10.2044 47.6044 12.3029 50.7426 14.6433 53.697C19.6042 59.8773 25.6468 65.1048 32.4765 69.1249C35.9149 71.1539 39.5179 72.8898 43.2475 74.3144C46.9357 75.7088 50.7249 76.82 54.5821 77.6384C61.9613 79.183 69.5258 79.6468 77.0384 79.0152C83.6589 78.4424 90.1968 77.1464 96.5352 75.1504C105.189 72.4112 113.456 68.574 121.134 63.7327C124.715 61.5147 128.112 59.0134 131.294 56.2529L131.633 55.935C130.383 62.2786 129.636 68.7107 129.397 75.1717C129.182 80.8502 129.553 84.363 130.086 84.3888C131.177 84.4698 132.342 70.6149 136.062 54.1228L136.222 53.2566Z" fill="#072333"/>
</svg>
