<svg width="124" height="83" viewBox="0 0 124 83" fill="none" xmlns="http://www.w3.org/2000/svg">
<path d="M5.45399 3.56563C10.013 2.42252 14.7022 1.88187 19.4017 1.95751C22.4055 1.94699 25.738 2.06964 29.2818 2.31026C33.0768 2.5469 36.8509 3.04664 40.5768 3.80587C42.5812 4.22193 44.5562 4.76935 46.4888 5.4446C48.5036 6.12162 50.4533 6.97854 52.3145 8.005C54.2336 9.03483 56.024 10.2883 57.6483 11.7393C59.31 13.1817 60.7678 14.8433 61.9818 16.6786L62.1744 16.9877C62.0547 17.0216 61.9212 17.0352 61.7918 17.0638C56.9122 18.1681 52.5231 20.8272 49.2848 24.641C47.6632 26.5929 46.456 28.8546 45.7366 31.2881C44.9813 33.8367 44.8919 36.5363 45.4769 39.1292C45.7438 40.5057 46.2284 41.8308 46.9124 43.0548C47.6689 44.432 48.7294 45.6187 50.0133 46.5247C51.2819 47.3729 52.7153 47.9437 54.2197 48.1999C55.7241 48.4561 57.2657 48.3919 58.7435 48.0115C61.4205 47.3209 63.7709 45.714 65.386 43.4701C66.8768 41.4238 67.9498 39.1038 68.5436 36.6427C69.1485 34.2276 69.377 31.7337 69.221 29.249C69.0195 26.1484 68.291 23.1048 67.0671 20.2489C67.7695 20.2409 68.4717 20.2795 69.169 20.3646C73.2867 20.837 77.2479 22.2186 80.766 24.4096C84.0605 26.4304 87.0301 28.9381 89.5741 31.8476C91.8087 34.3768 93.7264 37.1693 95.2845 40.1632C96.5501 42.7379 97.581 45.4215 98.3646 48.1814C99.6352 52.4864 100.43 56.9178 100.735 61.396C100.963 64.3983 100.964 67.4135 100.736 70.4159C100.538 72.8243 100.311 74.5617 100.101 75.9061C99.9397 77.0755 99.8013 77.8421 99.7199 78.4391L99.3285 77.6285C98.2131 75.3177 97.1655 73.2463 96.2399 71.5202C94.3835 68.0776 93.0476 65.9586 92.6252 66.151C92.2029 66.3434 92.8174 68.6264 94.1383 72.2612C94.7933 74.0882 95.6261 76.2286 96.5961 78.5968L96.9637 79.4948C97.1178 79.883 97.3049 80.2573 97.5232 80.6134C97.667 80.8397 97.8302 81.0531 98.011 81.2511C98.2404 81.5034 98.5038 81.7226 98.7936 81.9023C99.3905 82.2724 100.09 82.4423 100.79 82.3874C101.677 82.2617 102.532 81.97 103.311 81.5276L105.197 80.6537C115.57 75.6131 123.647 70.9157 123.195 70.1467C122.742 69.3777 113.964 72.8269 103.582 77.8621L102.221 78.5385C102.465 77.9399 102.669 77.3259 102.832 76.7004C103.356 74.8458 103.739 72.9541 103.977 71.0415C104.401 67.8974 104.534 64.721 104.376 61.5524C104.179 56.8082 103.424 52.1036 102.126 47.5359C101.284 44.5266 100.163 41.6024 98.7784 38.8014C97.0755 35.4833 94.964 32.3914 92.493 29.5979C89.659 26.3543 86.3443 23.5644 82.6646 21.3256C78.5862 18.8049 73.9944 17.2307 69.2272 16.719C67.8542 16.5658 66.4692 16.552 65.0934 16.6779C64.8369 16.2575 64.5804 15.8372 64.2982 15.4403C62.908 13.4029 61.25 11.5618 59.3688 9.96669C57.5509 8.41278 55.5582 7.07595 53.4309 5.9832C51.411 4.92157 49.2988 4.04563 47.1204 3.36619C45.0894 2.70059 43.0166 2.17007 40.9156 1.7781C37.0859 1.07742 33.2098 0.660136 29.3188 0.529644C25.6986 0.380726 22.3499 0.362363 19.2725 0.47456C14.4859 0.568317 9.73925 1.36855 5.18638 2.84935C3.98463 3.25897 2.81612 3.7603 1.69116 4.34894C0.938223 4.77244 0.578834 4.98743 0.594671 5.07185C0.610508 5.15627 2.31267 4.43149 5.4732 3.57636L5.45399 3.56563ZM62.9139 20.7387C63.2773 20.6519 63.6492 20.595 64.021 20.5382C65.2355 23.2888 65.9318 26.2398 66.0752 29.2432C66.1747 31.4366 65.9382 33.6324 65.3741 35.7545C64.8398 37.842 63.8986 39.8035 62.6044 41.5263C61.3834 43.1702 59.6272 44.3366 57.6386 44.8247C56.6648 45.0761 55.649 45.1194 54.6573 44.952C53.6656 44.7845 52.7204 44.41 51.8831 43.8529C50.3074 42.5644 49.2676 40.7355 48.9665 38.7224C48.5287 36.6604 48.6265 34.5206 49.2504 32.5071C49.885 30.5133 50.9154 28.6681 52.28 27.0819C53.6407 25.4811 55.255 24.1144 57.0584 23.0364C58.8598 21.9436 60.8331 21.1631 62.8947 20.728" fill="#F4900C"/>
</svg>
