<svg width="27" height="27" viewBox="0 0 27 27" fill="none" xmlns="http://www.w3.org/2000/svg">
<path fill-rule="evenodd" clip-rule="evenodd" d="M3.375 6.75C3.375 4.88603 4.88604 3.375 6.75 3.375H12.375C12.9963 3.375 13.5 3.87868 13.5 4.5C13.5 5.12132 12.9963 5.625 12.375 5.625H6.75C6.12868 5.625 5.625 6.12868 5.625 6.75V20.25C5.625 20.8713 6.12868 21.375 6.75 21.375H20.25C20.8713 21.375 21.375 20.8713 21.375 20.25V13.5C21.375 12.8787 21.8787 12.375 22.5 12.375C23.1213 12.375 23.625 12.8787 23.625 13.5V20.25C23.625 22.114 22.114 23.625 20.25 23.625H6.75C4.88604 23.625 3.375 22.114 3.375 20.25V6.75Z" fill="#515050" fill-opacity="0.8"/>
<path d="M19.4786 3.84099C20.3573 2.96231 21.7819 2.96231 22.6606 3.84099C23.5392 4.71967 23.5392 6.14429 22.6606 7.02297L14.7056 14.9779C14.2663 15.4173 13.554 15.4173 13.1146 14.9779L11.5236 13.3869C11.0843 12.9476 11.0843 12.2353 11.5236 11.7959L19.4786 3.84099Z" fill="#515050" fill-opacity="0.8"/>
<path d="M9.62675 14.5927C9.37569 14.3417 8.94659 14.337 8.84613 14.6775L8.11119 17.1687C7.87983 17.953 8.54757 18.6207 9.33181 18.3894L11.8231 17.6544C12.1636 17.554 12.1589 17.1249 11.9078 16.8738L9.62675 14.5927Z" fill="#515050" fill-opacity="0.8"/>
</svg>
