<svg width="24" height="24" viewBox="0 0 24 24" fill="none" xmlns="http://www.w3.org/2000/svg">
<path fill-rule="evenodd" clip-rule="evenodd" d="M12.1707 5H4C3.44772 5 3 5.44772 3 6C3 6.55228 3.44771 7 4 7H12.1707C12.5825 8.16519 13.6938 9 15 9C16.3062 9 17.4175 8.16519 17.8293 7H20C20.5523 7 21 6.55228 21 6C21 5.44772 20.5523 5 20 5H17.8293C17.4175 3.83481 16.3062 3 15 3C13.6938 3 12.5825 3.83481 12.1707 5ZM14 6C14 5.44772 14.4477 5 15 5C15.5523 5 16 5.44772 16 6C16 6.55228 15.5523 7 15 7C14.4477 7 14 6.55228 14 6Z" fill="#040921"/>
<path fill-rule="evenodd" clip-rule="evenodd" d="M8 9C9.30622 9 10.4175 9.83481 10.8293 11H20C20.5523 11 21 11.4477 21 12C21 12.5523 20.5523 13 20 13H10.8293C10.4175 14.1652 9.30622 15 8 15C6.69378 15 5.58254 14.1652 5.17071 13H4C3.44772 13 3 12.5523 3 12C3 11.4477 3.44772 11 4 11H5.17071C5.58254 9.83481 6.69378 9 8 9ZM8 11C8.55228 11 9 11.4477 9 12C9 12.5523 8.55228 13 8 13C7.44772 13 7 12.5523 7 12C7 11.4477 7.44772 11 8 11Z" fill="#040921"/>
<path fill-rule="evenodd" clip-rule="evenodd" d="M4 17C3.44772 17 3 17.4477 3 18C3 18.5523 3.44772 19 4 19H14.1707C14.5825 20.1652 15.6938 21 17 21C18.3062 21 19.4175 20.1652 19.8293 19H20C20.5523 19 21 18.5523 21 18C21 17.4477 20.5523 17 20 17H19.8293C19.4175 15.8348 18.3062 15 17 15C15.6938 15 14.5825 15.8348 14.1707 17H4ZM18 18C18 17.4477 17.5523 17 17 17C16.4477 17 16 17.4477 16 18C16 18.5523 16.4477 19 17 19C17.5523 19 18 18.5523 18 18Z" fill="#040921"/>
</svg>
