<svg width="27" height="27" viewBox="0 0 27 27" fill="none" xmlns="http://www.w3.org/2000/svg">
<path fill-rule="evenodd" clip-rule="evenodd" d="M13.5 4.5C10.3934 4.5 7.875 7.0184 7.875 10.125C7.875 13.2614 9.68816 17.8507 13.5 21.9997C17.3118 17.8507 19.125 13.2614 19.125 10.125C19.125 7.0184 16.6066 4.5 13.5 4.5ZM5.625 10.125C5.625 5.77576 9.15076 2.25 13.5 2.25C17.8492 2.25 21.375 5.77576 21.375 10.125C21.375 14.2337 18.94 19.776 14.2955 24.4205C13.8562 24.8598 13.1438 24.8598 12.7045 24.4205C8.06 19.776 5.625 14.2337 5.625 10.125Z" fill="#040921"/>
<path fill-rule="evenodd" clip-rule="evenodd" d="M13.5 11.25C14.1213 11.25 14.625 10.7463 14.625 10.125C14.625 9.50368 14.1213 9 13.5 9C12.8787 9 12.375 9.50368 12.375 10.125C12.375 10.7463 12.8787 11.25 13.5 11.25ZM13.5 13.5C15.364 13.5 16.875 11.989 16.875 10.125C16.875 8.26104 15.364 6.75 13.5 6.75C11.636 6.75 10.125 8.26104 10.125 10.125C10.125 11.989 11.636 13.5 13.5 13.5Z" fill="#040921"/>
</svg>
