<svg width="65" height="65" viewBox="0 0 65 65" fill="none" xmlns="http://www.w3.org/2000/svg">
<path d="M8.125 18.9583C8.125 17.4626 9.33756 16.25 10.8333 16.25H54.1667C55.6624 16.25 56.875 17.4626 56.875 18.9583C56.875 20.4541 55.6624 21.6667 54.1667 21.6667H10.8333C9.33756 21.6667 8.125 20.4541 8.125 18.9583Z" fill="#040921"/>
<path d="M8.125 32.5C8.125 31.0042 9.33756 29.7917 10.8333 29.7917H54.1667C55.6624 29.7917 56.875 31.0042 56.875 32.5C56.875 33.9958 55.6624 35.2083 54.1667 35.2083H10.8333C9.33756 35.2083 8.125 33.9958 8.125 32.5Z" fill="#040921"/>
<path d="M8.125 46.0417C8.125 44.5459 9.33756 43.3333 10.8333 43.3333H54.1667C55.6624 43.3333 56.875 44.5459 56.875 46.0417C56.875 47.5374 55.6624 48.75 54.1667 48.75H10.8333C9.33756 48.75 8.125 47.5374 8.125 46.0417Z" fill="#040921"/>
</svg>
