<svg width="27" height="27" viewBox="0 0 27 27" fill="none" xmlns="http://www.w3.org/2000/svg">
<path fill-rule="evenodd" clip-rule="evenodd" d="M5.04514 4.82617C4.7232 5.14846 4.42802 5.54379 4.23716 5.88803C3.99744 6.30878 3.82048 6.77016 3.71379 7.24985L3.65826 7.53968C2.78329 11.9789 3.8945 15.9501 7.56275 19.5922C9.96956 21.9819 11.7946 22.9639 14.2936 23.3224C14.6985 23.3805 15.1215 23.4241 15.6248 23.4614L16.6595 23.5242C17.237 23.5541 18.1991 23.602 18.5276 23.6207C18.9601 23.6454 19.5325 23.5626 20.3016 23.3825L20.4182 23.3483C21.0896 23.1111 21.7027 22.7263 22.2161 22.2124C24.0946 20.3318 24.0946 17.2826 22.2161 15.402L22.0487 15.2421C20.2327 13.5885 17.4557 13.5734 15.6227 15.2049L15.4054 15.4016L14.244 16.5643C13.9894 16.8191 13.5887 16.8536 13.2944 16.6461C12.6823 16.2144 11.0559 14.6225 10.6588 14.08C10.443 13.785 10.4743 13.3766 10.7326 13.1181L11.7559 12.0944L11.8434 12.0232L11.9733 11.9028C11.9968 11.8802 12.0207 11.8567 12.0443 11.8331C13.9771 9.89816 13.9771 6.76107 12.0443 4.82617C10.1116 2.89128 6.97791 2.89128 5.04514 4.82617ZM6.61505 6.39781C7.68078 5.3309 9.40868 5.3309 10.4744 6.39781C11.5402 7.46471 11.5402 9.19451 10.4744 10.2614C10.4085 10.3274 10.3398 10.3896 10.2686 10.4479L9.16311 11.5461C8.12988 12.58 8.00453 14.2138 8.86784 15.3935C9.40813 16.1318 11.2079 17.8933 12.0158 18.4631L12.1716 18.5659C13.3311 19.2795 14.84 19.1108 15.8139 18.1359L16.8876 17.0607L16.9023 17.0532L17.0057 16.952C18.019 15.9603 19.6427 15.9691 20.6461 16.9736C21.6577 17.9863 21.6577 19.6281 20.6461 20.6408L20.4736 20.7989C20.2952 20.9483 20.0998 21.0714 19.8916 21.1666L19.7236 21.2342L19.4382 21.297L19.1368 21.3535C18.9101 21.3914 18.7458 21.407 18.6538 21.4017L16.3995 21.2846L15.8022 21.2458L15.2842 21.2022C15.0414 21.1787 14.8202 21.1526 14.6085 21.1222C12.608 20.8352 11.2099 20.083 9.12617 18.0141C6.09845 15.0079 5.15999 11.8983 5.77863 8.28299L5.84334 7.93153C5.90199 7.57156 6.01061 7.26138 6.17211 6.97783C6.27045 6.80062 6.44145 6.57159 6.61505 6.39781Z" fill="#040921"/>
</svg>
