<svg width="50" height="50" viewBox="0 0 50 50" fill="none" xmlns="http://www.w3.org/2000/svg">
<path d="M27.084 10.4167C27.084 9.26611 26.1512 8.33337 25.0007 8.33337C23.8501 8.33337 22.9173 9.26611 22.9173 10.4167V22.9167H10.4173C9.26672 22.9167 8.33398 23.8494 8.33398 25C8.33398 26.1506 9.26673 27.0834 10.4173 27.0834H22.9173V39.5834C22.9173 40.734 23.8501 41.6667 25.0007 41.6667C26.1512 41.6667 27.084 40.734 27.084 39.5834V27.0834H39.584C40.7346 27.0834 41.6673 26.1506 41.6673 25C41.6673 23.8494 40.7346 22.9167 39.584 22.9167H27.084V10.4167Z" fill="#040921"/>
</svg>
