<svg width="35" height="36" viewBox="0 0 35 36" fill="none" xmlns="http://www.w3.org/2000/svg">
<path fill-rule="evenodd" clip-rule="evenodd" d="M14.5833 5.35123C8.94543 5.35123 4.375 9.92165 4.375 15.5596C4.375 21.1975 8.94543 25.7679 14.5833 25.7679C16.8763 25.7679 18.9927 25.0119 20.6969 23.7355L26.6772 29.7159C27.2468 30.2854 28.1701 30.2854 28.7396 29.7159C29.3092 29.1464 29.3092 28.223 28.7396 27.6535L22.7593 21.6731C24.0357 19.969 24.7917 17.8525 24.7917 15.5596C24.7917 9.92165 20.2212 5.35123 14.5833 5.35123ZM7.29167 15.5596C7.29167 11.5325 10.5563 8.26789 14.5833 8.26789C18.6104 8.26789 21.875 11.5325 21.875 15.5596C21.875 19.5866 18.6104 22.8512 14.5833 22.8512C10.5563 22.8512 7.29167 19.5866 7.29167 15.5596Z" fill="white"/>
</svg>
