<svg width="27" height="27" viewBox="0 0 27 27" fill="none" xmlns="http://www.w3.org/2000/svg">
<path fill-rule="evenodd" clip-rule="evenodd" d="M5.03615 17.1114C6.51474 15.0502 9.1334 13.5 13.4999 13.5C17.8664 13.5 20.485 15.0502 21.9636 17.1114C23.3927 19.1035 23.6203 21.3868 23.6248 22.6502C23.6294 23.9207 22.5643 24.75 21.4722 24.75H5.52752C4.4355 24.75 3.37038 23.9207 3.37495 22.6502C3.3795 21.3868 3.60711 19.1035 5.03615 17.1114ZM5.62695 22.5H21.3728C21.3496 21.4289 21.1192 19.7943 20.1354 18.4229C19.1513 17.0511 17.2742 15.75 13.4999 15.75C9.72561 15.75 7.84848 17.0511 6.86439 18.4229C5.88059 19.7943 5.65018 21.4289 5.62695 22.5Z" fill="#040921"/>
<path fill-rule="evenodd" clip-rule="evenodd" d="M13.5 8.99997C14.7426 8.99997 15.75 7.99261 15.75 6.74997C15.75 5.50733 14.7426 4.49997 13.5 4.49997C12.2574 4.49997 11.25 5.50733 11.25 6.74997C11.25 7.99261 12.2574 8.99997 13.5 8.99997ZM13.5 11.25C15.9853 11.25 18 9.23525 18 6.74997C18 4.26469 15.9853 2.24997 13.5 2.24997C11.0147 2.24997 8.99999 4.26469 8.99999 6.74997C8.99999 9.23525 11.0147 11.25 13.5 11.25Z" fill="#040921"/>
</svg>
